#!OML:ASF H:\Pregnant\Project 1\Capture day 1\Session 1\femalepreg.ASF
:FULLY-SPECIFIED
:DEGREES
328
root 6.90178 15.6524 24.937 13.4015 -86.8407 4.91799
lowerback -7.01612 3.12638 1.94866
upperback -15.04 3.06436 -2.76071
thorax -12.0709 0.685959 -4.10845
lowerneck -8.37871 17.1726 14.6331
upperneck 23.0204 25.9955 -16.6119
head 13.4054 11.1974 -4.21432
rclavicle -3.91606e-014 -7.95139e-015
rhumerus 68.3493 -76.552 -22.4551
rradius 24.8433
rwrist 5.3975
rhand -19.5715 -27.894
rfingers 7.12502
rthumb 6.75346 -57.7663
lclavicle -3.91606e-014 -7.95139e-015
lhumerus 28.7933 71.2073 -12.2297
lradius 26.3825
lwrist 18.1561
lhand -45.507 -42.7272
lfingers 7.12502
lthumb -18.2714 -13.5653
rfemur -27.1263 24.6565 11.011
rtibia 30.9987
rfoot -17.3252 -25.7121
rtoes -11.5967
lfemur 0 0 0
ltibia 0
lfoot 0 0
ltoes 0
329
root 6.90415 15.6526 24.937 13.4965 -86.8645 4.81687
lowerback -6.99935 3.14055 1.97022
upperback -15.0485 3.07821 -2.81375
thorax -12.0867 0.68523 -4.18014
lowerneck -8.28752 17.2026 14.7897
upperneck 22.9838 26.0417 -16.6943
head 13.4212 11.2292 -4.25991
rclavicle -8.15017e-015 2.3059e-014
rhumerus 67.5836 -76.5384 -21.7449
rradius 24.8675
rwrist 5.36398
rhand -19.625 -27.8497
rfingers 7.12502
rthumb 6.70185 -57.7236
lclavicle -8.15017e-015 2.3059e-014
lhumerus 29.097 71.2333 -12.0334
lradius 26.3549
lwrist 17.9045
lhand -45.577 -43.0872
lfingers 7.12502
lthumb -18.3388 -13.9316
rfemur -27.1373 24.6418 11.0139
rtibia 30.997
rfoot -17.3264 -25.6672
rtoes -11.5719
lfemur 0 0 0
ltibia 0
lfoot 0 0
ltoes 0
330
root 6.90655 15.6528 24.9371 13.5721 -86.8909 4.73499
lowerback -6.98278 3.15894 1.9869
upperback -15.0579 3.09803 -2.86364
thorax -12.1032 0.68821 -4.2459
lowerneck -8.19535 17.2241 14.9318
upperneck 22.9505 26.0798 -16.7806
head 13.4353 11.2556 -4.30747
rclavicle -1.45113e-014 3.10104e-014
rhumerus 66.8625 -76.5224 -21.0689
rradius 24.9049
rwrist 5.31535
rhand -19.6838 -27.8167
rfingers 7.12502
rthumb 6.64506 -57.6924
lclavicle -1.45113e-014 3.10104e-014
lhumerus 29.3609 71.2236 -11.8674
lradius 26.3268
lwrist 17.751
lhand -45.6252 -43.0501
lfingers 7.12502
lthumb -18.3852 -13.8989
rfemur -27.1498 24.6293 11.0146
rtibia 30.9975
rfoot -17.3323 -25.6197
rtoes -11.5303
lfemur 0 0 0
ltibia 0
lfoot 0 0
ltoes 0
331
root 6.9089 15.653 24.9371 13.6385 -86.9212 4.66015
lowerback -6.96542 3.18027 1.99847
upperback -15.0665 3.12234 -2.90969
thorax -12.1191 0.694399 -4.30477
lowerneck -8.11412 17.2428 15.0404
upperneck 22.9283 26.1156 -16.8529
head 13.448 11.2784 -4.34557
rclavicle -1.8487e-014 3.18055e-015
rhumerus 66.2206 -76.5075 -20.468
rradius 24.9503
rwrist 5.27016
rhand -19.7377 -27.8166
rfingers 7.12502
rthumb 6.59301 -57.6939
lclavicle -1.8487e-014 3.18055e-015
lhumerus 29.5858 71.1892 -11.7304
lradius 26.3041
lwrist 17.719
lhand -45.6686 -42.7879
lfingers 7.12502
lthumb -18.4269 -13.6407
rfemur -27.1619 24.6183 11.0145
rtibia 31
rfoot -17.3398 -25.5702
rtoes -11.4804
lfemur 0 0 0
ltibia 0
lfoot 0 0
ltoes 0
332
root 6.91121 15.653 24.9371 13.682 -86.9548 4.60773
lowerback -6.94979 3.20169 2.00521
upperback -15.0733 3.1473 -2.95111
thorax -12.1322 0.701993 -4.35575
lowerneck -8.04617 17.2605 15.1066
upperneck 22.9124 26.1513 -16.9089
head 13.4561 11.298 -4.37147
rclavicle -2.76311e-014 1.19271e-015
rhumerus 65.6205 -76.4884 -19.9011
rradius 24.9975
rwrist 5.21844
rhand -19.7998 -27.8327
rfingers 7.12502
rthumb 6.53309 -57.7119
lclavicle -2.76311e-014 1.19271e-015
lhumerus 29.797 71.1539 -11.5954
lradius 26.2897
lwrist 17.7904
lhand -45.7019 -42.5251
lfingers 7.12502
lthumb -18.459 -13.3809
rfemur -27.175 24.6175 11.0113
rtibia 31.0034
rfoot -17.34 -25.5318
rtoes -11.4513
lfemur 0 0 0
ltibia 0
lfoot 0 0
ltoes 0
333
root 6.9135 15.653 24.9371 13.7115 -86.991 4.56874
lowerback -6.93491 3.22202 2.01053
upperback -15.0785 3.17098 -2.99152
thorax -12.143 0.709327 -4.4047
lowerneck -7.99012 17.2774 15.1461
upperneck 22.8999 26.1852 -16.9509
head 13.4607 11.3151 -4.38837
rclavicle -6.55989e-015 -1.43125e-014
rhumerus 65.0019 -76.4651 -19.3156
rradius 25.0363
rwrist 5.16396
rhand -19.8572 -27.9014
rfingers 7.12502
rthumb 6.47766 -57.7824
lclavicle -6.55989e-015 -1.43125e-014
lhumerus 29.9879 71.1181 -11.4776
lradius 26.285
lwrist 17.9569
lhand -45.7502 -42.384
lfingers 7.12502
lthumb -18.5055 -13.2442
rfemur -27.1883 24.6197 11.0065
rtibia 31.0065
rfoot -17.3369 -25.496
rtoes -11.4269
lfemur 0 0 0
ltibia 0
lfoot 0 0
ltoes 0
334
root 6.91571 15.653 24.9371 13.7797 -87.0291 4.49088
lowerback -6.92214 3.24202 2.019
upperback -15.0819 3.19419 -3.03314
thorax -12.1503 0.716149 -4.45656
lowerneck -7.94872 17.2925 15.1653
upperneck 22.8918 26.2142 -16.9782
head 13.4631 11.3288 -4.3973
rclavicle 5.96354e-016 3.57812e-015
rhumerus 64.3302 -76.4355 -18.6753
rradius 25.065
rwrist 5.10255
rhand -19.9153 -27.9948
rfingers 7.12502
rthumb 6.42155 -57.8774
lclavicle 5.96354e-016 3.57812e-015
lhumerus 30.2043 71.0994 -11.3321
lradius 26.2878
lwrist 18.1717
lhand -45.8252 -42.4333
lfingers 7.12502
lthumb -18.5776 -13.3004
rfemur -27.2013 24.6295 11.0032
rtibia 31.0081
rfoot -17.3232 -25.4707
rtoes -11.4396
lfemur 0 0 0
ltibia 0
lfoot 0 0
ltoes 0
335
root 6.91797 15.653 24.937 13.8682 -87.0661 4.39519
lowerback -6.91609 3.26123 2.03037
upperback -15.0828 3.21632 -3.07539
thorax -12.1504 0.72236 -4.5102
lowerneck -7.91839 17.3041 15.1698
upperneck 22.8855 26.2362 -16.9949
head 13.4627 11.3385 -4.4013
rclavicle -2.92213e-014 1.66979e-014
rhumerus 63.6321 -76.4006 -18.0042
rradius 25.0834
rwrist 5.04197
rhand -19.9934 -28.0458
rfingers 7.12502
rthumb 6.34619 -57.9307
lclavicle -2.92213e-014 1.66979e-014
lhumerus 30.44 71.1006 -11.1617
lradius 26.2958
lwrist 18.3985
lhand -45.9164 -42.711
lfingers 7.12502
lthumb -18.6653 -13.5865
rfemur -27.2156 24.6309 11.0028
rtibia 31.0075
rfoot -17.2961 -25.4454
rtoes -11.4911
lfemur 0 0 0
ltibia 0
lfoot 0 0
ltoes 0
